# xmcd CD database file
#
# Track frame offsets:
#	150
#	18999
#	43835
#	65546
#	73549
#	98782
#	117805
#	136733
#	160997
#	176290
#	197643
#	238562
#	245747
#
# Disc length: 3407 seconds
#
# Revision: 1
# Processed by: cddbd v1.5.2PL0 Copyright (c) Steve Scherf et al.
# Submitted via: CDex 1.51
#
DISCID=ac0d4d0d
DTITLE=Raulin, Oliva, Dehors, Monniot &Boisseau - Echoes Of Spring
DYEAR=2007
DGENRE=Jazz
TTITLE0=Carolina Shout (James P. Johnson) 
TTITLE1=Morning Air (Willie Smith "The Lion") 
TTITLE2=Aunt Hagar's Blues (W.C. Handy) (Tribute To Art Tatum) 
TTITLE3=The Second Portrait Of The Lion (Duke Ellington) - Portrait Of The Duke (Willie 'The lion' Smith)
TTITLE4=Echoes Of Spring (Willie Smith "The Lion") 
TTITLE5=Kitten On The Keys (Zez Confrey) 
TTITLE6=Ain't Misbehavin' (Thomas "Fat's" Waller, Andy Razaf)
TTITLE7=Child Of A Disordered Brain (Earl "Fatha" Hines) - Zig Zag (Willie Smith "The Lion'Smith)
TTITLE8=In The Dark - Flashes (Bix Beiderbecke) 
TTITLE9=In A Mist (Bix Beiderbecke) 
TTITLE10=Boogie Woogie On St Louis Blues (W.C. Handy) 
TTITLE11=Tonk (Duke Ellington, Billy Strayhorn) 
TTITLE12=Fast And Furious (Duke Ellington) 
EXTD=YEAR: 2007
EXTT0=
EXTT1=
EXTT2=
EXTT3=
EXTT4=
EXTT5=
EXTT6=
EXTT7=
EXTT8=
EXTT9=
EXTT10=
EXTT11=
EXTT12=
PLAYORDER=
